<svg width="111" height="64" viewBox="0 0 111 64" fill="none" xmlns="http://www.w3.org/2000/svg">
<path d="M110.113 27.3076V23.2437H91.5591V40.7827H110.113V36.7187H96.1965V33.9417H109.561V30.0245H96.1965V27.3076H110.113Z" fill="white"/>
<path d="M47.0958 52.7036C47.0391 52.2182 46.9183 51.6688 46.7257 51.0517C46.5331 50.4346 46.2839 49.8702 45.978 49.3509C45.6721 48.8354 45.2453 48.3161 44.6978 47.7968C44.1502 47.2775 43.512 46.841 42.7794 46.4835C42.0505 46.1298 41.1442 45.8401 40.0641 45.6218C38.9841 45.4036 37.7794 45.2944 36.4539 45.2944H35.574C34.2447 45.2944 33.0362 45.4036 31.9448 45.6218C30.8497 45.8401 29.9396 46.126 29.2069 46.4835C28.4743 46.841 27.8361 47.2775 27.2885 47.7968C26.7447 48.3161 26.3142 48.8316 26.0083 49.3509C25.7024 49.8702 25.457 50.4384 25.2719 51.063C25.0869 51.6877 24.966 52.237 24.9132 52.7149C24.8565 53.1928 24.8301 53.7008 24.8301 54.2352V54.9652C24.8301 55.4807 24.8565 55.9849 24.9132 56.4703C24.966 56.9558 25.0869 57.5089 25.2719 58.1336C25.4532 58.7544 25.7024 59.3302 26.0083 59.857C26.3142 60.3838 26.7447 60.9106 27.2999 61.4374C27.855 61.9642 28.4932 62.4083 29.2183 62.7733C29.9433 63.1383 30.8497 63.4355 31.9448 63.6613C33.0362 63.8871 34.2484 64 35.574 64H36.4576C37.7832 64 38.9878 63.8871 40.0754 63.6613C41.1593 63.4318 42.0656 63.1383 42.7907 62.7733C43.5158 62.4083 44.154 61.9642 44.7091 61.4374C45.2605 60.9106 45.6872 60.3838 45.9893 59.857C46.2876 59.3339 46.5331 58.7582 46.7257 58.1336C46.9183 57.5127 47.0391 56.9558 47.0958 56.4703C47.1524 55.9849 47.1789 55.4845 47.1789 54.9652V54.2352C47.1789 53.7008 47.1487 53.1891 47.0958 52.7036ZM42.1789 54.7432C42.1789 55.3264 42.092 55.8758 41.9221 56.3951C41.7522 56.9144 41.4538 57.4261 41.0309 57.9379C40.6041 58.4496 39.9659 58.8523 39.1125 59.1533C38.2552 59.4506 37.2205 59.6011 36.0045 59.6011C34.7885 59.6011 33.75 59.4468 32.8889 59.1383C32.0279 58.8335 31.3859 58.4195 30.9705 57.9003C30.5551 57.3847 30.2606 56.8655 30.0906 56.3462C29.9207 55.8269 29.8338 55.2775 29.8338 54.6942V54.4045C29.8338 51.2474 31.8882 49.667 36.0045 49.667C36.9863 49.667 37.8587 49.7686 38.6178 49.9718C39.3768 50.1712 39.9735 50.4271 40.4115 50.7356C40.8458 51.0442 41.2046 51.413 41.4765 51.8419C41.7522 52.2709 41.9372 52.6924 42.0316 53.1063C42.126 53.5164 42.1751 53.9529 42.1751 54.4045H42.1789V54.7432Z" fill="white"/>
<path d="M14.1729 14.0583H8.09662C6.36325 14.0583 4.95843 12.6585 4.95843 10.9313V7.77046C4.95843 6.04704 6.36325 4.64346 8.09662 4.64346H14.1729C15.0414 4.64346 15.8232 4.99341 16.3896 5.55785C16.7597 5.92662 17.0392 6.60771 17.1864 7.19849H22.2808C21.2234 2.22013 17.4772 0 11.265 0C4.63365 0 0 3.53716 0 9.14769C0 15.1722 4.28245 18.7055 11.1178 18.7055C17.1411 18.7055 21.2536 15.8081 22.277 11.4995H17.1789C16.7975 12.8391 15.5928 14.0583 14.1729 14.0583Z" fill="white"/>
<path d="M14.1729 36.7188H8.09662C6.36325 36.7188 4.95843 35.319 4.95843 33.5918V30.431C4.95843 28.7075 6.36325 27.304 8.09662 27.304H14.1729C15.0414 27.304 15.8232 27.6539 16.3896 28.2184C16.7597 28.5871 17.0392 29.2682 17.1864 29.859H22.2808C21.2234 24.8769 17.4772 22.6567 11.265 22.6567C4.63365 22.6567 0 26.1939 0 31.8082C0 37.8327 4.28245 41.3661 11.1178 41.3661C17.1411 41.3661 21.2536 38.4686 22.277 34.16H17.1789C16.7975 35.4996 15.5928 36.7188 14.1729 36.7188Z" fill="white"/>
<path d="M14.1729 59.3565H8.09662C6.36325 59.3565 4.95843 57.9567 4.95843 56.2295V53.0687C4.95843 51.3452 6.36325 49.9417 8.09662 49.9417H14.1729C15.0414 49.9417 15.8232 50.2916 16.3896 50.856C16.7597 51.2248 17.0392 51.9059 17.1864 52.4967H22.2808C21.2234 47.5146 17.4772 45.2944 11.265 45.2944C4.63365 45.2944 0 48.8316 0 54.4421C0 60.4666 4.28245 64 11.1178 64C17.1411 64 21.2536 61.1025 22.277 56.794H17.1789C16.7975 58.1373 15.5928 59.3565 14.1729 59.3565Z" fill="white"/>
<path d="M65.332 45.9832V56.7301L55.5096 45.9832H50.1357V63.5222H54.8902V52.2597L65.332 63.5222H70.0865V45.9832H65.332Z" fill="white"/>
<path d="M57.156 23.2437H52.0918V40.7827H57.156V23.2437Z" fill="white"/>
<path d="M80.3733 23.2437L75.0561 34.4346L69.7616 23.2437H62.9414V40.7827H67.5562V29.0762L72.5259 39.27H77.2313L82.2049 29.0762V40.7827H86.9443V23.2437H80.3733Z" fill="white"/>
<path d="M46.6502 29.4412C46.6502 25.4073 44.1012 23.2437 38.7311 23.2437H26.4087V40.7827H31.0159V35.5183H36.6768L40.7364 40.7827H46.1631L41.8089 35.112C44.8602 34.3217 46.6502 32.4215 46.6502 29.4412ZM39.6979 31.3678H31.0159V27.5673H39.6979C40.7515 27.5673 41.605 28.4177 41.605 29.4675C41.605 30.5174 40.7515 31.3678 39.6979 31.3678Z" fill="white"/>
<path d="M36.4765 0.583252L32.1411 7.11571L27.685 0.583252H22.1299L29.796 11.285V18.1261H34.2786V11.285L41.5331 0.583252H36.4765Z" fill="white"/>
<path d="M111 6.78081C111 2.74694 108.451 0.583252 103.081 0.583252H90.7583V18.1223H95.3617V12.8617H101.023L105.086 18.1223H110.513L106.159 12.4515C109.21 11.6613 111 9.76105 111 6.78081ZM104.051 8.71119H95.3693V4.91063H104.051C105.105 4.91063 105.958 5.76105 105.958 6.81091C105.958 7.86077 105.105 8.71119 104.051 8.71119Z" fill="white"/>
<path d="M86.7591 4.64722V0.583252H68.2056V18.1223H86.7591V14.0583H72.843V11.2813H86.2077V7.36406H72.843V4.64722H86.7591Z" fill="white"/>
<path d="M59.4595 9.03104C61.7744 8.91063 63.859 7.53716 63.859 4.93697C63.859 2.10348 61.8613 0.583252 58.5191 0.583252H43.8516V18.1223H57.9942C61.7178 18.1223 64.2706 16.7789 64.2706 13.5052C64.2706 10.5814 62.3333 9.14769 59.4595 9.03104ZM48.3342 4.47036H57.5486C58.3416 4.47036 58.9874 5.11383 58.9874 5.90404C58.9874 6.69426 58.3416 7.33772 57.5486 7.33396H48.3342V4.47036ZM57.8998 14.2352H48.3342V11.3151H57.8998C58.7042 11.3151 59.365 11.9661 59.365 12.7752C59.365 13.5804 58.7117 14.2352 57.8998 14.2352Z" fill="white"/>
<path d="M79.4366 58.6831L88.145 55.9249C90.7092 55.1121 92.4463 54.1488 92.4463 50.0698C92.4463 47.6502 90.4788 45.6897 88.0468 45.6897H79.4442C78.2319 45.6897 77.133 46.1789 76.3362 46.9691C75.5431 47.7631 75.0522 48.8581 75.0522 50.066H75.0484V51.9399H79.4366V50.066H89.4894V50.9503C89.4894 50.9503 80.46 53.5806 77.6277 54.5288C74.5084 55.5749 73.957 57.2005 73.957 59.97V63.605H91.8497V59.2287H79.4366V58.6831Z" fill="white"/>
<path d="M111 59.2325V63.605H96.438V59.2325H101.51V50.066H96.9591V45.8816H101.51H106.268V59.2325H111Z" fill="white"/>
</svg>
