<svg width="110" height="64" viewBox="0 0 110 64" fill="none" xmlns="http://www.w3.org/2000/svg">
<g clip-path="url(#clip0)">
<path d="M110.113 27.3076V23.2436H91.5591V40.7827H110.113V36.7187H96.1965V33.9417H109.561V30.0244H96.1965V27.3076H110.113Z" fill="#6D6D6D"/>
<path d="M47.0958 52.7036C47.0391 52.2182 46.9183 51.6688 46.7257 51.0517C46.5331 50.4345 46.2839 49.8701 45.978 49.3508C45.6721 48.8353 45.2453 48.316 44.6978 47.7967C44.1502 47.2774 43.512 46.8409 42.7794 46.4835C42.0505 46.1297 41.1442 45.84 40.0641 45.6217C38.9841 45.4035 37.7794 45.2944 36.4539 45.2944H35.574C34.2447 45.2944 33.0362 45.4035 31.9448 45.6217C30.8497 45.84 29.9396 46.126 29.2069 46.4835C28.4743 46.8409 27.8361 47.2774 27.2885 47.7967C26.7447 48.316 26.3142 48.8315 26.0083 49.3508C25.7024 49.8701 25.457 50.4383 25.2719 51.0629C25.0869 51.6876 24.966 52.237 24.9132 52.7149C24.8565 53.1928 24.8301 53.7008 24.8301 54.2351V54.9651C24.8301 55.4806 24.8565 55.9849 24.9132 56.4703C24.966 56.9557 25.0869 57.5088 25.2719 58.1335C25.4532 58.7544 25.7024 59.3301 26.0083 59.8569C26.3142 60.3837 26.7447 60.9105 27.2999 61.4374C27.855 61.9642 28.4932 62.4082 29.2183 62.7732C29.9433 63.1382 30.8497 63.4355 31.9448 63.6612C33.0362 63.887 34.2484 63.9999 35.574 63.9999H36.4576C37.7832 63.9999 38.9878 63.887 40.0754 63.6612C41.1593 63.4317 42.0656 63.1382 42.7907 62.7732C43.5158 62.4082 44.154 61.9642 44.7091 61.4374C45.2605 60.9105 45.6872 60.3837 45.9893 59.8569C46.2876 59.3339 46.5331 58.7581 46.7257 58.1335C46.9183 57.5126 47.0391 56.9557 47.0958 56.4703C47.1524 55.9849 47.1789 55.4844 47.1789 54.9651V54.2351C47.1789 53.7008 47.1487 53.189 47.0958 52.7036ZM42.1789 54.7431C42.1789 55.3263 42.092 55.8757 41.9221 56.395C41.7522 56.9143 41.4538 57.4261 41.0309 57.9378C40.6041 58.4496 39.9659 58.8522 39.1125 59.1532C38.2552 59.4505 37.2205 59.601 36.0045 59.601C34.7885 59.601 33.75 59.4468 32.8889 59.1382C32.0279 58.8334 31.3859 58.4195 30.9705 57.9002C30.5551 57.3847 30.2606 56.8654 30.0906 56.3461C29.9207 55.8268 29.8338 55.2774 29.8338 54.6942V54.4044C29.8338 51.2473 31.8882 49.6669 36.0045 49.6669C36.9863 49.6669 37.8587 49.7685 38.6178 49.9717C39.3768 50.1711 39.9735 50.427 40.4115 50.7356C40.8458 51.0441 41.2046 51.4129 41.4765 51.8419C41.7522 52.2708 41.9372 52.6923 42.0316 53.1062C42.126 53.5164 42.1751 53.9529 42.1751 54.4044H42.1789V54.7431Z" fill="#6D6D6D"/>
<path d="M14.1729 14.0583H8.09662C6.36325 14.0583 4.95843 12.6585 4.95843 10.9313V7.77046C4.95843 6.04704 6.36325 4.64346 8.09662 4.64346H14.1729C15.0414 4.64346 15.8232 4.99341 16.3896 5.55785C16.7597 5.92662 17.0392 6.60771 17.1864 7.19849H22.2808C21.2234 2.22013 17.4772 0 11.265 0C4.63365 0 0 3.53716 0 9.14769C0 15.1722 4.28245 18.7055 11.1178 18.7055C17.1411 18.7055 21.2536 15.8081 22.277 11.4995H17.1789C16.7975 12.8391 15.5928 14.0583 14.1729 14.0583Z" fill="#6D6D6D"/>
<path d="M14.1729 36.7188H8.09662C6.36325 36.7188 4.95843 35.3189 4.95843 33.5917V30.4309C4.95843 28.7075 6.36325 27.3039 8.09662 27.3039H14.1729C15.0414 27.3039 15.8232 27.6538 16.3896 28.2183C16.7597 28.587 17.0392 29.2681 17.1864 29.8589H22.2808C21.2234 24.8768 17.4772 22.6567 11.265 22.6567C4.63365 22.6567 0 26.1938 0 31.8081C0 37.8326 4.28245 41.366 11.1178 41.366C17.1411 41.366 21.2536 38.4685 22.277 34.16H17.1789C16.7975 35.4996 15.5928 36.7188 14.1729 36.7188Z" fill="#6D6D6D"/>
<path d="M14.1729 59.3565H8.09662C6.36325 59.3565 4.95843 57.9566 4.95843 56.2294V53.0686C4.95843 51.3452 6.36325 49.9416 8.09662 49.9416H14.1729C15.0414 49.9416 15.8232 50.2915 16.3896 50.856C16.7597 51.2247 17.0392 51.9058 17.1864 52.4966H22.2808C21.2234 47.5145 17.4772 45.2944 11.265 45.2944C4.63365 45.2944 0 48.8315 0 54.4421C0 60.4665 4.28245 63.9999 11.1178 63.9999C17.1411 63.9999 21.2536 61.1024 22.277 56.7939H17.1789C16.7975 58.1373 15.5928 59.3565 14.1729 59.3565Z" fill="#6D6D6D"/>
<path d="M65.332 45.9831V56.73L55.5096 45.9831H50.1357V63.5221H54.8902V52.2597L65.332 63.5221H70.0865V45.9831H65.332Z" fill="#6D6D6D"/>
<path d="M57.156 23.2436H52.0918V40.7827H57.156V23.2436Z" fill="#6D6D6D"/>
<path d="M80.3733 23.2436L75.0561 34.4346L69.7616 23.2436H62.9414V40.7827H67.5562V29.0762L72.5259 39.27H77.2313L82.2049 29.0762V40.7827H86.9443V23.2436H80.3733Z" fill="#6D6D6D"/>
<path d="M46.6502 29.4412C46.6502 25.4073 44.1012 23.2436 38.7311 23.2436H26.4087V40.7827H31.0159V35.5183H36.6768L40.7364 40.7827H46.1631L41.8089 35.1119C44.8602 34.3217 46.6502 32.4214 46.6502 29.4412ZM39.6979 31.3678H31.0159V27.5673H39.6979C40.7515 27.5673 41.605 28.4177 41.605 29.4675C41.605 30.5174 40.7515 31.3678 39.6979 31.3678Z" fill="#6D6D6D"/>
<path d="M36.4765 0.583221L32.1411 7.11568L27.685 0.583221H22.1299L29.796 11.285V18.126H34.2786V11.285L41.5331 0.583221H36.4765Z" fill="#6D6D6D"/>
<path d="M111 6.78078C111 2.74691 108.451 0.583221 103.081 0.583221H90.7583V18.1223H95.3617V12.8617H101.023L105.086 18.1223H110.513L106.159 12.4515C109.21 11.6613 111 9.76102 111 6.78078ZM104.051 8.71116H95.3693V4.9106H104.051C105.105 4.9106 105.958 5.76102 105.958 6.81088C105.958 7.86074 105.105 8.71116 104.051 8.71116Z" fill="#6D6D6D"/>
<path d="M86.7591 4.64719V0.583221H68.2056V18.1223H86.7591V14.0583H72.843V11.2812H86.2077V7.36403H72.843V4.64719H86.7591Z" fill="#6D6D6D"/>
<path d="M59.4595 9.03101C61.7744 8.9106 63.859 7.53712 63.859 4.93694C63.859 2.10345 61.8613 0.583221 58.5191 0.583221H43.8516V18.1223H57.9942C61.7178 18.1223 64.2706 16.7789 64.2706 13.5051C64.2706 10.5813 62.3333 9.14766 59.4595 9.03101ZM48.3342 4.47033H57.5486C58.3416 4.47033 58.9874 5.11379 58.9874 5.90401C58.9874 6.69423 58.3416 7.33769 57.5486 7.33393H48.3342V4.47033ZM57.8998 14.2352H48.3342V11.3151H57.8998C58.7042 11.3151 59.365 11.9661 59.365 12.7751C59.365 13.5804 58.7117 14.2352 57.8998 14.2352Z" fill="#6D6D6D"/>
<path d="M79.4366 58.683L88.145 55.9248C90.7092 55.112 92.4463 54.1487 92.4463 50.0697C92.4463 47.6501 90.4788 45.6896 88.0468 45.6896H79.4442C78.2319 45.6896 77.133 46.1788 76.3362 46.969C75.5431 47.763 75.0522 48.858 75.0522 50.0659H75.0484V51.9398H79.4366V50.0659H89.4894V50.9502C89.4894 50.9502 80.46 53.5805 77.6277 54.5287C74.5084 55.5748 73.957 57.2004 73.957 59.9699V63.6049H91.8497V59.2286H79.4366V58.683Z" fill="#6D6D6D"/>
<path d="M111 59.2324V63.6049H96.438V59.2324H101.51V50.0659H96.9591V45.8815H101.51H106.268V59.2324H111Z" fill="#6D6D6D"/>
</g>
<defs>
<clipPath id="clip0">
<rect width="110" height="64" fill="white"/>
</clipPath>
</defs>
</svg>
