<svg width="93" height="37" viewBox="0 0 93 37" fill="none" xmlns="http://www.w3.org/2000/svg">
<path d="M4.8 9.18C6.792 9.18 8.148 8.064 8.52 6.432H7.368C7.056 7.464 6.144 8.22 4.8 8.22C3.072 8.22 1.884 6.924 1.884 4.8C1.884 2.676 3.072 1.38 4.8 1.38C6.144 1.38 7.056 2.136 7.368 3.168H8.52C8.148 1.536 6.792 0.42 4.8 0.42C2.412 0.42 0.78 2.076 0.78 4.8C0.78 7.524 2.412 9.18 4.8 9.18ZM15.2872 3L10.8592 3L10.6552 5.988C10.5472 7.632 10.0072 8.064 10.0072 8.064H9.27516V10.464H10.2832V9L15.3592 9V10.464H16.3672V8.064H15.2872L15.2872 3ZM11.0512 8.064C11.0512 8.064 11.5312 7.632 11.6392 5.988L11.7592 3.936L14.2792 3.936L14.2792 8.064H11.0512ZM23.2351 6C23.2351 4.176 21.9751 2.856 20.2231 2.856C18.4711 2.856 17.1991 4.176 17.1991 6C17.1991 7.824 18.4831 9.144 20.2471 9.144C21.6991 9.144 22.7191 8.424 23.0911 7.284H21.9991C21.7231 7.908 21.1111 8.256 20.2471 8.256C19.1311 8.256 18.3271 7.452 18.2191 6.276L23.2351 6.276V6ZM20.2231 3.744C21.2071 3.744 21.9391 4.392 22.1671 5.376L18.2671 5.376C18.4951 4.392 19.2271 3.744 20.2231 3.744ZM30.0581 3L25.6301 3L25.4021 6.636C25.3301 7.812 25.0061 8.028 24.4901 8.028L24.1781 8.028V9L24.4901 9C25.7021 9 26.2781 8.52 26.3861 6.636L26.5421 3.936L29.0501 3.936V9H30.0581V3ZM37.1842 8.1C37.0762 8.1 37.0162 8.028 37.0162 7.932V5.22C37.0162 3.792 36.0682 2.856 34.5442 2.856C33.1402 2.856 32.2282 3.6 31.9042 4.776H32.9602C33.2002 4.116 33.7282 3.744 34.5442 3.744C35.4202 3.744 36.0322 4.236 36.0322 5.172V5.328H33.8602C32.5282 5.328 31.7962 6.156 31.7962 7.128C31.7962 8.304 32.7322 9.144 33.8842 9.144C34.9282 9.144 35.6602 8.724 36.0322 8.004C36.0562 8.64 36.4522 9 37.1602 9H37.8203V8.1H37.1842ZM34.0642 8.256C33.2962 8.256 32.8042 7.776 32.8042 7.128C32.8042 6.612 33.1882 6.192 33.8722 6.192H36.0322C35.9602 7.428 35.2402 8.256 34.0642 8.256ZM43.7126 5.424L40.2086 5.424V3H39.2006V9H40.2086V6.36L43.7126 6.36V9L44.7206 9V3H43.7126V5.424ZM49.51 9.144C51.334 9.144 52.63 7.824 52.63 6C52.63 4.176 51.382 2.856 49.51 2.856C47.686 2.856 46.39 4.176 46.39 6C46.39 7.824 47.686 9.144 49.51 9.144ZM49.51 8.232C48.286 8.232 47.422 7.32 47.422 6C47.422 4.68 48.274 3.768 49.51 3.768C50.794 3.768 51.598 4.68 51.598 6C51.598 7.32 50.734 8.232 49.51 8.232ZM61.7252 5.868C62.2892 5.616 62.5772 5.148 62.5772 4.572C62.5772 3.636 61.8932 3 60.6212 3H57.5372V9H60.7772C62.0612 9 62.7572 8.316 62.7572 7.32C62.7572 6.636 62.3972 6.12 61.7252 5.868ZM60.5612 3.9C61.2692 3.9 61.5692 4.2 61.5692 4.668C61.5692 5.172 61.2572 5.472 60.5612 5.472H58.5452V3.9H60.5612ZM58.5452 8.1V6.324H60.7052C61.4372 6.324 61.7492 6.672 61.7492 7.224C61.7492 7.776 61.4372 8.1 60.7052 8.1H58.5452ZM6.768 29.124L13.338 29.124V29.628C13.338 33.858 10.908 36.27 7.326 36.27C3.564 36.27 1.044 33.732 1.044 29.7C1.044 25.668 3.564 23.13 7.326 23.13C10.296 23.13 12.384 24.75 12.996 27.306H10.728C10.26 25.92 9.036 25.002 7.326 25.002C4.86 25.002 3.222 26.802 3.222 29.7C3.222 32.598 4.86 34.398 7.326 34.398C9.324 34.398 10.692 33.246 11.088 30.996L6.768 30.996V29.124ZM23.0528 30.924C24.9428 30.51 26.0768 29.124 26.0768 27.234C26.0768 24.966 24.3848 23.4 21.7028 23.4H16.3388V36H18.4628V31.086L20.7488 31.086L24.0608 36H26.5268L23.0528 30.924ZM18.4628 29.214V25.344H21.5408C23.0708 25.344 23.8808 26.046 23.8808 27.27C23.8808 28.494 23.0708 29.214 21.5408 29.214H18.4628ZM34.686 23.13C30.924 23.13 28.404 25.668 28.404 29.7C28.404 33.696 30.924 36.27 34.686 36.27C38.43 36.27 40.95 33.696 40.95 29.7C40.95 25.668 38.43 23.13 34.686 23.13ZM34.686 34.398C32.22 34.398 30.6 32.58 30.6 29.7C30.6 26.802 32.22 25.002 34.686 25.002C37.134 25.002 38.754 26.802 38.754 29.7C38.754 32.58 37.152 34.398 34.686 34.398ZM43.6946 31.086L43.6946 23.4H45.8186L45.8186 31.086C45.8186 33.138 47.0966 34.398 49.0406 34.398C51.0026 34.398 52.2626 33.138 52.2626 31.086L52.2626 23.4H54.3866L54.3866 31.086C54.3866 34.236 52.2626 36.27 49.0406 36.27C45.8366 36.27 43.6946 34.236 43.6946 31.086ZM63.0755 23.4H57.7655L57.7655 36L59.8895 36V31.212H63.0755C65.7395 31.212 67.4135 29.628 67.4135 27.288C67.4135 24.966 65.7395 23.4 63.0755 23.4ZM62.9315 29.268H59.8895V25.344H62.9315C64.4255 25.344 65.2175 26.046 65.2175 27.288C65.2175 28.548 64.4255 29.268 62.9315 29.268ZM69.3159 31.626V29.808H74.5359V31.626H69.3159ZM77.2329 36V23.4H79.3569V36H77.2329ZM90.9969 29.394C92.0589 28.836 92.6169 27.882 92.6169 26.694C92.6169 24.732 91.1769 23.4 88.5309 23.4L82.9149 23.4V36H88.8189C91.5009 36 92.9949 34.578 92.9949 32.49C92.9949 31.086 92.2929 29.988 90.9969 29.394ZM85.0389 25.29L88.3149 25.29C89.8089 25.29 90.4209 25.92 90.4209 26.946C90.4209 27.99 89.7909 28.62 88.3149 28.62L85.0389 28.62V25.29ZM88.5489 34.092H85.0389V30.366L88.5489 30.366C90.1149 30.366 90.7809 31.086 90.7809 32.256C90.7809 33.39 90.1149 34.092 88.5489 34.092Z" fill="#6D6D6D"/>
</svg>
