<svg width="93" height="37" viewBox="0 0 93 37" fill="none" xmlns="http://www.w3.org/2000/svg">
<path d="M34.3791 9.18C36.3711 9.18 37.7271 8.064 38.0991 6.432H36.9471C36.6351 7.464 35.7231 8.22 34.3791 8.22C32.6511 8.22 31.4631 6.924 31.4631 4.8C31.4631 2.676 32.6511 1.38 34.3791 1.38C35.7231 1.38 36.6351 2.136 36.9471 3.168H38.0991C37.7271 1.536 36.3711 0.42 34.3791 0.42C31.9911 0.42 30.3591 2.076 30.3591 4.8C30.3591 7.524 31.9911 9.18 34.3791 9.18ZM44.8662 3L40.4382 3L40.2342 5.988C40.1262 7.632 39.5862 8.064 39.5862 8.064H38.8542V10.464H39.8622V9H44.9382V10.464H45.9462V8.064H44.8662V3ZM40.6302 8.064C40.6302 8.064 41.1102 7.632 41.2182 5.988L41.3382 3.936H43.8582V8.064H40.6302ZM52.8142 6C52.8142 4.176 51.5542 2.856 49.8022 2.856C48.0502 2.856 46.7782 4.176 46.7782 6C46.7782 7.824 48.0622 9.144 49.8262 9.144C51.2782 9.144 52.2982 8.424 52.6702 7.284H51.5782C51.3022 7.908 50.6902 8.256 49.8262 8.256C48.7102 8.256 47.9062 7.452 47.7982 6.276L52.8142 6.276V6ZM49.8022 3.744C50.7862 3.744 51.5182 4.392 51.7462 5.376L47.8462 5.376C48.0742 4.392 48.8062 3.744 49.8022 3.744ZM59.6372 3L55.2092 3L54.9812 6.636C54.9092 7.812 54.5852 8.028 54.0692 8.028H53.7572V9H54.0692C55.2812 9 55.8572 8.52 55.9652 6.636L56.1212 3.936H58.6292V9H59.6372V3ZM66.7633 8.1C66.6553 8.1 66.5953 8.028 66.5953 7.932V5.22C66.5953 3.792 65.6473 2.856 64.1233 2.856C62.7193 2.856 61.8073 3.6 61.4833 4.776H62.5393C62.7793 4.116 63.3073 3.744 64.1233 3.744C64.9993 3.744 65.6113 4.236 65.6113 5.172V5.328L63.4393 5.328C62.1073 5.328 61.3753 6.156 61.3753 7.128C61.3753 8.304 62.3113 9.144 63.4633 9.144C64.5073 9.144 65.2393 8.724 65.6113 8.004C65.6353 8.64 66.0313 9 66.7393 9H67.3993V8.1H66.7633ZM63.6433 8.256C62.8753 8.256 62.3833 7.776 62.3833 7.128C62.3833 6.612 62.7673 6.192 63.4513 6.192L65.6113 6.192C65.5393 7.428 64.8193 8.256 63.6433 8.256ZM73.2917 5.424H69.7877V3H68.7797V9H69.7877V6.36H73.2917V9H74.2997V3L73.2917 3V5.424ZM79.0891 9.144C80.9131 9.144 82.2091 7.824 82.2091 6C82.2091 4.176 80.9611 2.856 79.0891 2.856C77.2651 2.856 75.9691 4.176 75.9691 6C75.9691 7.824 77.2651 9.144 79.0891 9.144ZM79.0891 8.232C77.8651 8.232 77.0011 7.32 77.0011 6C77.0011 4.68 77.8531 3.768 79.0891 3.768C80.3731 3.768 81.1771 4.68 81.1771 6C81.1771 7.32 80.3131 8.232 79.0891 8.232ZM91.3043 5.868C91.8683 5.616 92.1562 5.148 92.1562 4.572C92.1562 3.636 91.4723 3 90.2003 3L87.1163 3V9H90.3563C91.6403 9 92.3363 8.316 92.3363 7.32C92.3363 6.636 91.9763 6.12 91.3043 5.868ZM90.1403 3.9C90.8483 3.9 91.1483 4.2 91.1483 4.668C91.1483 5.172 90.8363 5.472 90.1403 5.472H88.1243V3.9H90.1403ZM88.1243 8.1V6.324H90.2843C91.0163 6.324 91.3283 6.672 91.3283 7.224C91.3283 7.776 91.0163 8.1 90.2843 8.1H88.1243ZM5.78339 29.124L12.3534 29.124V29.628C12.3534 33.858 9.92339 36.27 6.34139 36.27C2.57939 36.27 0.0593885 33.732 0.0593885 29.7C0.0593885 25.668 2.57939 23.13 6.34139 23.13C9.31139 23.13 11.3994 24.75 12.0114 27.306H9.74339C9.27539 25.92 8.05139 25.002 6.34139 25.002C3.87539 25.002 2.23739 26.802 2.23739 29.7C2.23739 32.598 3.87539 34.398 6.34139 34.398C8.33939 34.398 9.70739 33.246 10.1034 30.996H5.78339V29.124ZM22.0682 30.924C23.9582 30.51 25.0922 29.124 25.0922 27.234C25.0922 24.966 23.4002 23.4 20.7182 23.4H15.3542L15.3542 36H17.4782V31.086H19.7642L23.0762 36H25.5422L22.0682 30.924ZM17.4782 29.214V25.344H20.5562C22.0862 25.344 22.8962 26.046 22.8962 27.27C22.8962 28.494 22.0862 29.214 20.5562 29.214H17.4782ZM33.7014 23.13C29.9394 23.13 27.4194 25.668 27.4194 29.7C27.4194 33.696 29.9394 36.27 33.7014 36.27C37.4454 36.27 39.9654 33.696 39.9654 29.7C39.9654 25.668 37.4454 23.13 33.7014 23.13ZM33.7014 34.398C31.2354 34.398 29.6154 32.58 29.6154 29.7C29.6154 26.802 31.2354 25.002 33.7014 25.002C36.1494 25.002 37.7694 26.802 37.7694 29.7C37.7694 32.58 36.1674 34.398 33.7014 34.398ZM42.71 31.086L42.71 23.4H44.834L44.834 31.086C44.834 33.138 46.112 34.398 48.056 34.398C50.018 34.398 51.278 33.138 51.278 31.086V23.4L53.402 23.4V31.086C53.402 34.236 51.278 36.27 48.056 36.27C44.852 36.27 42.71 34.236 42.71 31.086ZM62.0909 23.4H56.7809V36H58.9049V31.212H62.0909C64.7549 31.212 66.4289 29.628 66.4289 27.288C66.4289 24.966 64.7549 23.4 62.0909 23.4ZM61.9469 29.268H58.9049V25.344H61.9469C63.4409 25.344 64.2329 26.046 64.2329 27.288C64.2329 28.548 63.4409 29.268 61.9469 29.268ZM68.3313 31.626V29.808L73.5513 29.808V31.626H68.3313ZM76.2483 36V23.4H78.3723V36H76.2483ZM90.0123 29.394C91.0743 28.836 91.6323 27.882 91.6323 26.694C91.6323 24.732 90.1923 23.4 87.5463 23.4H81.9303V36H87.8343C90.5163 36 92.0103 34.578 92.0103 32.49C92.0103 31.086 91.3083 29.988 90.0123 29.394ZM84.0543 25.29H87.3303C88.8243 25.29 89.4363 25.92 89.4363 26.946C89.4363 27.99 88.8063 28.62 87.3303 28.62H84.0543V25.29ZM87.5643 34.092H84.0543V30.366H87.5643C89.1303 30.366 89.7963 31.086 89.7963 32.256C89.7963 33.39 89.1303 34.092 87.5643 34.092Z" fill="white"/>
</svg>
